<svg width="69" height="69" viewBox="0 0 69 69" fill="none" xmlns="http://www.w3.org/2000/svg">
<path d="M34.5 4.6001C18.0136 4.6001 4.59998 18.0137 4.59998 34.5001C4.59998 50.9865 18.0136 64.4001 34.5 64.4001C50.9864 64.4001 64.4 50.9865 64.4 34.5001C64.4 18.0137 50.9864 4.6001 34.5 4.6001ZM26.8318 13.8001H42.1637C49.3512 13.8001 55.2 19.6467 55.2 26.8319V42.1638C55.2 49.3513 49.3533 55.2001 42.1681 55.2001H26.8363C19.6488 55.2001 13.8 49.3535 13.8 42.1683V26.8364C13.8 19.6489 19.6466 13.8001 26.8318 13.8001ZM26.8318 18.4001C22.1835 18.4001 18.4 22.1858 18.4 26.8364V42.1683C18.4 46.8166 22.1857 50.6001 26.8363 50.6001H42.1681C46.8164 50.6001 50.6 46.8144 50.6 42.1638V26.8319C50.6 22.1836 46.8143 18.4001 42.1637 18.4001H26.8318ZM45.2363 22.2319C46.0827 22.2319 46.7681 22.9174 46.7681 23.7638C46.7681 24.6102 46.0827 25.3001 45.2363 25.3001C44.3899 25.3001 43.7 24.6102 43.7 23.7638C43.7 22.9174 44.3899 22.2319 45.2363 22.2319ZM34.5 23.0001C40.8411 23.0001 46 28.159 46 34.5001C46 40.8412 40.8411 46.0001 34.5 46.0001C28.1589 46.0001 23 40.8412 23 34.5001C23 28.159 28.1589 23.0001 34.5 23.0001ZM34.5 27.6001C32.67 27.6001 30.9149 28.3271 29.6209 29.6211C28.3269 30.9151 27.6 32.6701 27.6 34.5001C27.6 36.3301 28.3269 38.0851 29.6209 39.3791C30.9149 40.6731 32.67 41.4001 34.5 41.4001C36.33 41.4001 38.085 40.6731 39.379 39.3791C40.673 38.0851 41.4 36.3301 41.4 34.5001C41.4 32.6701 40.673 30.9151 39.379 29.6211C38.085 28.3271 36.33 27.6001 34.5 27.6001Z" fill="#ECECEC"/>
</svg>
