<svg width="75" height="75" viewBox="0 0 75 75" fill="none" xmlns="http://www.w3.org/2000/svg">
<path d="M37.5 7.5C20.9325 7.5 7.5 20.9325 7.5 37.5C7.5 54.0675 20.9325 67.5 37.5 67.5C54.0675 67.5 67.5 54.0675 67.5 37.5C67.5 20.9325 54.0675 7.5 37.5 7.5ZM26.24 21.0075C28.345 21.0075 29.7475 22.41 29.7475 24.28C29.7475 26.15 28.345 27.5525 26.0075 27.5525C23.9025 27.555 22.5 26.15 22.5 24.28C22.5 22.41 23.9025 21.0075 26.24 21.0075ZM30 50H22.5V30H30V50ZM55 50H47.94V39.07C47.94 36.0475 46.0575 35.35 45.3525 35.35C44.6475 35.35 42.2925 35.815 42.2925 39.07C42.2925 39.535 42.2925 50 42.2925 50H35V30H42.295V32.79C43.235 31.1625 45.1175 30 48.6475 30C52.1775 30 55 32.79 55 39.07V50Z" fill="#ECECEC"/>
</svg>
