<svg width="72" height="72" viewBox="0 0 72 72" fill="none" xmlns="http://www.w3.org/2000/svg">
<path d="M36 7.19995C20.0952 7.19995 7.20001 20.0952 7.20001 36C7.20001 51.9047 20.0952 64.7999 36 64.7999C51.9048 64.7999 64.8 51.9047 64.8 36C64.8 20.0952 51.9048 7.19995 36 7.19995ZM51.5136 30.084C51.528 30.4031 51.5352 30.7199 51.5352 31.0368C51.5352 40.7999 44.1072 52.0511 30.5208 52.0511C26.3472 52.0511 22.4664 50.8295 19.2 48.7319C19.7784 48.8015 20.3664 48.8327 20.964 48.8327C24.4272 48.8327 27.6096 47.6543 30.1344 45.6695C26.9016 45.6095 24.1728 43.4735 23.2344 40.5407C23.6856 40.6272 24.1488 40.6727 24.624 40.6727C25.2984 40.6727 25.9536 40.5816 26.5704 40.4136C23.1912 39.7368 20.6448 36.7511 20.6448 33.1727C20.6448 33.1415 20.6448 33.1103 20.6448 33.0791C21.6408 33.6335 22.7784 33.9648 23.9904 34.0032C22.0104 32.6807 20.7048 30.4176 20.7048 27.8568C20.7048 26.5008 21.0672 25.2312 21.7032 24.144C25.3464 28.6128 30.7896 31.5551 36.9264 31.8624C36.8016 31.3223 36.7368 30.7583 36.7368 30.1799C36.7368 26.1024 40.044 22.7927 44.1216 22.7927C46.2456 22.7927 48.1656 23.6903 49.512 25.1255C51.1944 24.792 52.776 24.18 54.204 23.3328C53.652 25.0583 52.4808 26.5032 50.9544 27.42C52.4472 27.2423 53.8704 26.8463 55.1976 26.2584C54.2112 27.7416 52.9608 29.0399 51.5136 30.084Z" fill="#ECECEC"/>
</svg>
